# xmcd
#
# Track frame offsets:
#	150
#	9697
#	20067
#	30975
#	42611
#	56482
#	67115
#	84135
#	96707
#	110562
#	120236
#	130455
#	143723
#	155610
#	167738
#	184055
#	196790
#
# Disc length: 2911 seconds
#
# Revision: 1
# Processed by: cddbd v1.5.2PL0 Copyright (c) Steve Scherf et al.
# Submitted via: audiograbber 1.83.01
#
DISCID=ea0b5d11
DTITLE=Niculina Stoican - De dragoste si de joc
DYEAR=1900
DGENRE=Populara
TTITLE0=Dant
TTITLE1=Dantu' ca la munte
TTITLE2=Ungurica
TTITLE3=Dantul prejnenilor
TTITLE4=Inimioara, ti-as da multe!
TTITLE5=Pentru gura ta, Marie
TTITLE6=Dusmanii-au innebunit
TTITLE7=Barbatele, barbatele
TTITLE8=Suflet bland cu doruri multe
TTITLE9=M-a-ntrebat neica pe lunca
TTITLE10=Mai da-mi, Doamne, zile multe!
TTITLE11=Inima, nu stiu de-i bine
TTITLE12=Frunza-i verde, verde-i iarba
TTITLE13=Cand esti mama la copii
TTITLE14=A crescut baiatu' mamii
TTITLE15=Unde-s anii tineretii?
TTITLE16=Sta murgutu' langa gard
EXTD=CD distribuit impreuna cu revista Taifasuri
EXTT0=
EXTT1=
EXTT2=
EXTT3=
EXTT4=
EXTT5=
EXTT6=
EXTT7=
EXTT8=
EXTT9=
EXTT10=
EXTT11=
EXTT12=
EXTT13=
EXTT14=
EXTT15=
EXTT16=
PLAYORDER=
